<svg width="520" height="180" viewBox="0 0 520 180" xmlns="http://www.w3.org/2000/svg">
  <defs>
    <linearGradient id="docGradient" x1="0%" y1="0%" x2="100%" y2="100%">
      <stop offset="0%" stop-color="#3B82F6" />
      <stop offset="100%" stop-color="#14B8A6" />
    </linearGradient>
    <linearGradient id="parserGradient" x1="0%" y1="0%" x2="100%" y2="0%">
      <stop offset="0%" stop-color="#06B6D4" />
      <stop offset="100%" stop-color="#3B82F6" />
    </linearGradient>
  </defs>

  <rect x="20" y="25" width="90" height="110" rx="10" fill="url(#docGradient)" />

  <rect x="35" y="55" width="50" height="6" rx="3" fill="white" opacity="0.8" />
  <rect x="35" y="70" width="50" height="6" rx="3" fill="white" opacity="0.8" />
  <rect x="35" y="85" width="35" height="6" rx="3" fill="white" opacity="0.8" />

  <line x1="170" y1="60" x2="130" y2="95" stroke="#F97316" stroke-width="4" />
  <line x1="170" y1="60" x2="210" y2="95" stroke="#F97316" stroke-width="4" />

  <line x1="130" y1="95" x2="110" y2="120" stroke="#F97316" stroke-width="4" />
  <line x1="130" y1="95" x2="150" y2="120" stroke="#F97316" stroke-width="4" />

  <line x1="210" y1="95" x2="190" y2="120" stroke="#22C55E" stroke-width="4" />
  <line x1="210" y1="95" x2="230" y2="120" stroke="#22C55E" stroke-width="4" />

  <circle cx="170" cy="60" r="10" fill="#F97316" />
  <circle cx="130" cy="95" r="8" fill="#F59E0B" />
  <circle cx="210" cy="95" r="8" fill="#A3E635" />

  <circle cx="110" cy="120" r="7" fill="#F97316" />
  <circle cx="150" cy="120" r="7" fill="#FACC15" />
  <circle cx="190" cy="120" r="7" fill="#22C55E" />
  <circle cx="230" cy="120" r="7" fill="#3B82F6" />

  <text x="260" y="105" font-family="Inter, Arial, sans-serif" font-size="42" font-weight="700">
    <tspan fill="#333">Simple</tspan>
    <tspan fill="url(#parserGradient)">-Parser</tspan>
  </text>
</svg>
